mtllib cube_manual.mtl

v  0.500000 -0.500000 -0.500000
v  0.500000 -0.500000 -0.500000
v  0.500000 -0.500000 -0.500000
v  -0.500000 -0.500000 -0.500000
v  -0.500000 -0.500000 -0.500000
v  -0.500000 -0.500000 -0.500000
v  -0.500000 -0.500000 0.500000
v  -0.500000 -0.500000 0.500000
v  -0.500000 -0.500000 0.500000
v  0.500000 -0.500000 0.500000
v  0.500000 -0.500000 0.500000
v  0.500000 -0.500000 0.500000
v  0.500000 0.500000 -0.500000
v  0.500000 0.500000 -0.500000
v  0.500000 0.500000 -0.500000
v  0.500000 0.500000 0.500000
v  0.500000 0.500000 0.500000
v  0.500000 0.500000 0.500000
v  -0.500000 0.500000 0.500000
v  -0.500000 0.500000 0.500000
v  -0.500000 0.500000 0.500000
v  -0.500000 0.500000 -0.500000
v  -0.500000 0.500000 -0.500000
v  -0.500000 0.500000 -0.500000

vt  0.333333 0.000000 0.000000
vt  0.333333 0.000000 0.000000
vt  0.333333 0.000000 0.000000
vt  0.000000 0.000000 0.000000
vt  0.000000 0.000000 0.000000
vt  0.000000 0.000000 0.000000
vt  0.000000 1.000000 0.000000
vt  0.000000 1.000000 0.000000
vt  0.000000 1.000000 0.000000
vt  0.333333 1.000000 0.000000
vt  0.333333 1.000000 0.000000
vt  0.333333 1.000000 0.000000
vt  0.666667 0.000000 0.000000
vt  0.666667 0.000000 0.000000
vt  0.666667 0.000000 0.000000
vt  0.666667 1.000000 0.000000
vt  0.666667 1.000000 0.000000
vt  0.666667 1.000000 0.000000
vt  1.000000 1.000000 0.000000
vt  1.000000 1.000000 0.000000
vt  1.000000 1.000000 0.000000
vt  1.000000 0.000000 0.000000
vt  1.000000 0.000000 0.000000
vt  1.000000 0.000000 0.000000

vn  0.000000 -1.000000 0.000000
vn  0.000000 0.000000 -1.000000
vn  1.000000 0.000000 0.000000
vn  0.000000 -1.000000 0.000000
vn  0.000000 0.000000 -1.000000
vn  -1.000000 0.000000 0.000000
vn  0.000000 -1.000000 0.000000
vn  -1.000000 0.000000 0.000000
vn  0.000000 0.000000 1.000000
vn  0.000000 -1.000000 0.000000
vn  0.000000 0.000000 1.000000
vn  1.000000 0.000000 0.000000
vn  0.000000 1.000000 0.000000
vn  0.000000 0.000000 -1.000000
vn  1.000000 0.000000 0.000000
vn  0.000000 1.000000 0.000000
vn  0.000000 0.000000 1.000000
vn  1.000000 0.000000 0.000000
vn  0.000000 1.000000 0.000000
vn  -1.000000 0.000000 0.000000
vn  0.000000 0.000000 1.000000
vn  0.000000 1.000000 0.000000
vn  0.000000 0.000000 -1.000000
vn  -1.000000 0.000000 0.000000


g 0
g 1
usemtl DEFAULT_MTL
f 10/10/10  4/4/4  1/1/1
f 23/23/23  2/2/2  5/5/5
f 15/15/15  12/12/12  3/3/3
f 23/23/23  14/14/14  2/2/2
f 10/10/10  7/7/7  4/4/4
f 20/20/20  6/6/6  8/8/8
f 24/24/24  6/6/6  20/20/20
f 17/17/17  9/9/9  11/11/11
f 21/21/21  9/9/9  17/17/17
f 18/18/18  12/12/12  15/15/15
f 19/19/19  16/16/16  13/13/13
f 22/22/22  19/19/19  13/13/13
