mtllib weaponpost2.mtl

v  7.500000 0.000000 0.000000
v  7.500000 0.000000 0.000000
v  7.500000 0.000000 0.000000
v  6.757267 0.000000 -3.254128
v  6.757267 0.000000 -3.254128
v  4.676174 0.000000 -5.863736
v  4.676174 0.000000 -5.863736
v  1.668907 0.000000 -7.311959
v  1.668907 0.000000 -7.311959
v  -1.668907 0.000000 -7.311959
v  -1.668907 0.000000 -7.311959
v  -4.676174 0.000000 -5.863736
v  -4.676174 0.000000 -5.863736
v  -6.757267 0.000000 -3.254128
v  -6.757267 0.000000 -3.254128
v  -7.500000 0.000000 -0.000000
v  -7.500000 0.000000 -0.000000
v  -7.500000 0.000000 -0.000000
v  -6.757267 0.000000 3.254128
v  -6.757267 0.000000 3.254128
v  -4.676174 0.000000 5.863736
v  -4.676174 0.000000 5.863736
v  -1.668907 0.000000 7.311959
v  -1.668907 0.000000 7.311959
v  1.668907 0.000000 7.311959
v  1.668907 0.000000 7.311959
v  4.676174 0.000000 5.863736
v  4.676174 0.000000 5.863736
v  6.757267 0.000000 3.254128
v  6.757267 0.000000 3.254128
v  -7.500000 38.041164 -0.000000
v  -7.500000 38.041164 -0.000000
v  -7.500000 38.041164 -0.000000
v  -7.500000 38.041164 -0.000000
v  7.500000 38.041164 0.000000
v  7.500000 38.041164 0.000000
v  7.500000 38.041164 0.000000
v  7.500000 38.041164 0.000000
v  6.757268 38.041164 -3.254125
v  6.757268 38.041164 -3.254125
v  4.676184 38.041164 -5.863728
v  4.676184 38.041164 -5.863728
v  1.668898 38.041164 -7.311961
v  1.668898 38.041164 -7.311961
v  -1.668918 38.041164 -7.311957
v  -1.668918 38.041164 -7.311957
v  -4.676180 38.041164 -5.863731
v  -4.676180 38.041164 -5.863731
v  -6.757269 38.041164 -3.254123
v  -6.757269 38.041164 -3.254123
v  -6.757268 38.041164 3.254125
v  -6.757268 38.041164 3.254125
v  -4.676184 38.041164 5.863728
v  -4.676184 38.041164 5.863728
v  -1.668898 38.041164 7.311961
v  -1.668898 38.041164 7.311961
v  1.668918 38.041164 7.311957
v  1.668918 38.041164 7.311957
v  4.676180 38.041164 5.863731
v  4.676180 38.041164 5.863731
v  6.757269 38.041164 3.254123
v  6.757269 38.041164 3.254123
v  -6.129032 38.712798 0.000000
v  -6.129032 38.712798 0.000000
v  -6.129032 38.712798 0.000000
v  -6.129032 38.712798 0.000000
v  -5.522080 38.712798 -2.659261
v  -5.522080 38.712798 -2.659261
v  -3.821411 38.712798 -4.791853
v  -3.821411 38.712798 -4.791853
v  -1.363864 38.712798 -5.975359
v  -1.363864 38.712798 -5.975359
v  1.363815 38.712798 -5.975370
v  1.363815 38.712798 -5.975370
v  3.821396 38.712798 -4.791865
v  3.821396 38.712798 -4.791865
v  5.522067 38.712798 -2.659288
v  5.522067 38.712798 -2.659288
v  6.129032 38.712798 -0.000000
v  6.129032 38.712798 -0.000000
v  6.129032 38.712798 -0.000000
v  6.129032 38.712798 -0.000000
v  3.239151 37.153517 -0.000000
v  3.239151 37.153517 -0.000000
v  3.239151 37.153517 -0.000000
v  3.239151 37.153517 -0.000000
v  2.992586 37.153517 -1.239570
v  2.290426 37.153517 -2.290426
v  1.239570 37.153517 -2.992586
v  -0.000000 37.153517 -3.239151
v  -1.239570 37.153517 -2.992586
v  -2.290426 37.153517 -2.290426
v  -2.992586 37.153517 -1.239570
v  -3.239151 37.153517 0.000000
v  -3.239151 37.153517 0.000000
v  -3.239151 37.153517 0.000000
v  -3.239151 37.153517 0.000000
v  -0.000000 36.614378 0.000000
v  -0.000000 36.614378 0.000000
v  -0.000000 36.614378 0.000000
v  -0.000000 36.614378 0.000000
v  5.522080 38.712798 2.659261
v  5.522080 38.712798 2.659261
v  3.821411 38.712798 4.791853
v  3.821411 38.712798 4.791853
v  1.363864 38.712798 5.975359
v  1.363864 38.712798 5.975359
v  -1.363815 38.712798 5.975370
v  -1.363815 38.712798 5.975370
v  -3.821396 38.712798 4.791865
v  -3.821396 38.712798 4.791865
v  -5.522067 38.712798 2.659288
v  -5.522067 38.712798 2.659288
v  -2.992586 37.153517 1.239570
v  -2.290426 37.153517 2.290426
v  -1.239570 37.153517 2.992586
v  -0.000000 37.153517 3.239151
v  1.239570 37.153517 2.992586
v  2.290426 37.153517 2.290426
v  2.992586 37.153517 1.239570
v  -7.275683 38.616508 0.000000
v  -7.275683 38.616508 0.000000
v  -7.275683 38.616508 0.000000
v  -7.275683 38.616508 0.000000
v  -6.721855 38.616508 2.784284
v  -5.144685 38.616508 5.144685
v  -2.784284 38.616508 6.721855
v  0.000000 38.616508 7.275683
v  2.784284 38.616508 6.721855
v  5.144685 38.616508 5.144685
v  6.721855 38.616508 2.784284
v  7.275683 38.616508 -0.000000
v  7.275683 38.616508 -0.000000
v  7.275683 38.616508 -0.000000
v  7.275683 38.616508 -0.000000
v  -6.720499 38.888236 0.000000
v  -6.720499 38.888236 0.000000
v  -6.720499 38.888236 0.000000
v  -6.720499 38.888236 0.000000
v  -6.208932 38.888236 2.571824
v  -4.752110 38.888236 4.752110
v  -2.571824 38.888236 6.208932
v  0.000000 38.888236 6.720499
v  2.571824 38.888236 6.208932
v  4.752110 38.888236 4.752110
v  6.208932 38.888236 2.571824
v  6.720499 38.888236 -0.000000
v  6.720499 38.888236 -0.000000
v  6.720499 38.888236 -0.000000
v  6.720499 38.888236 -0.000000
v  6.721855 38.616508 -2.784284
v  5.144685 38.616508 -5.144685
v  2.784284 38.616508 -6.721855
v  -0.000000 38.616508 -7.275683
v  -2.784284 38.616508 -6.721855
v  -5.144685 38.616508 -5.144685
v  -6.721855 38.616508 -2.784284
v  6.208932 38.888236 -2.571824
v  4.752110 38.888236 -4.752110
v  2.571824 38.888236 -6.208932
v  -0.000000 38.888236 -6.720499
v  -2.571824 38.888236 -6.208932
v  -4.752110 38.888236 -4.752110
v  -6.208932 38.888236 -2.571824

vt  0.000000 0.500000 0.000000
vt  0.000000 0.500000 0.000000
vt  0.000000 0.500000 0.000000
vt  0.000000 0.333333 0.000000
vt  0.000000 0.333333 0.000000
vt  0.000000 0.166667 0.000000
vt  0.000000 0.166667 0.000000
vt  0.000000 0.000000 0.000000
vt  0.000000 0.000000 0.000000
vt  1.000000 0.000000 0.000000
vt  1.000000 0.000000 0.000000
vt  1.000000 0.166667 0.000000
vt  1.000000 0.166667 0.000000
vt  1.000000 0.333333 0.000000
vt  1.000000 0.333333 0.000000
vt  1.000000 0.500000 0.000000
vt  1.000000 0.500000 0.000000
vt  1.000000 0.500000 0.000000
vt  1.000000 0.666667 0.000000
vt  1.000000 0.666667 0.000000
vt  1.000000 0.833333 0.000000
vt  1.000000 0.833333 0.000000
vt  1.000000 1.000000 0.000000
vt  1.000000 1.000000 0.000000
vt  0.000000 1.000000 0.000000
vt  0.000000 1.000000 0.000000
vt  0.000000 0.833333 0.000000
vt  0.000000 0.833333 0.000000
vt  0.000000 0.666667 0.000000
vt  0.000000 0.666667 0.000000
vt  0.561962 0.500000 0.000000
vt  0.561962 0.500000 0.000000
vt  0.561962 0.500000 0.000000
vt  0.561962 0.500000 0.000000
vt  0.438038 0.500000 0.000000
vt  0.438038 0.500000 0.000000
vt  0.438038 0.500000 0.000000
vt  0.438038 0.500000 0.000000
vt  0.444042 0.468796 0.000000
vt  0.444042 0.468796 0.000000
vt  0.461067 0.443623 0.000000
vt  0.461067 0.443623 0.000000
vt  0.486044 0.429546 0.000000
vt  0.486044 0.429546 0.000000
vt  0.513956 0.429546 0.000000
vt  0.513956 0.429546 0.000000
vt  0.538933 0.443622 0.000000
vt  0.538933 0.443622 0.000000
vt  0.555958 0.468796 0.000000
vt  0.555958 0.468796 0.000000
vt  0.555958 0.531204 0.000000
vt  0.555958 0.531204 0.000000
vt  0.538933 0.556377 0.000000
vt  0.538933 0.556377 0.000000
vt  0.513956 0.570454 0.000000
vt  0.513956 0.570454 0.000000
vt  0.486044 0.570454 0.000000
vt  0.486044 0.570454 0.000000
vt  0.461067 0.556378 0.000000
vt  0.461067 0.556378 0.000000
vt  0.444042 0.531204 0.000000
vt  0.444042 0.531204 0.000000
vt  0.549980 0.500000 0.000000
vt  0.549980 0.500000 0.000000
vt  0.549980 0.500000 0.000000
vt  0.549980 0.500000 0.000000
vt  0.545100 0.474785 0.000000
vt  0.545100 0.474785 0.000000
vt  0.531319 0.454485 0.000000
vt  0.531319 0.454485 0.000000
vt  0.511210 0.443163 0.000000
vt  0.511210 0.443163 0.000000
vt  0.488791 0.443163 0.000000
vt  0.488791 0.443163 0.000000
vt  0.468681 0.454485 0.000000
vt  0.468681 0.454485 0.000000
vt  0.454900 0.474785 0.000000
vt  0.454900 0.474785 0.000000
vt  0.450020 0.500000 0.000000
vt  0.450020 0.500000 0.000000
vt  0.450020 0.500000 0.000000
vt  0.450020 0.500000 0.000000
vt  0.472319 0.500000 0.000000
vt  0.472319 0.500000 0.000000
vt  0.472319 0.500000 0.000000
vt  0.472319 0.500000 0.000000
vt  0.474416 0.487655 0.000000
vt  0.480402 0.477179 0.000000
vt  0.489384 0.470169 0.000000
vt  0.500000 0.467705 0.000000
vt  0.510616 0.470169 0.000000
vt  0.519598 0.477179 0.000000
vt  0.525584 0.487655 0.000000
vt  0.527681 0.500000 0.000000
vt  0.527681 0.500000 0.000000
vt  0.527681 0.500000 0.000000
vt  0.527681 0.500000 0.000000
vt  0.500000 0.500000 0.000000
vt  0.500000 0.500000 0.000000
vt  0.500000 0.500000 0.000000
vt  0.500000 0.500000 0.000000
vt  0.454900 0.525215 0.000000
vt  0.454900 0.525215 0.000000
vt  0.468681 0.545515 0.000000
vt  0.468681 0.545515 0.000000
vt  0.488790 0.556837 0.000000
vt  0.488790 0.556837 0.000000
vt  0.511209 0.556837 0.000000
vt  0.511209 0.556837 0.000000
vt  0.531319 0.545515 0.000000
vt  0.531319 0.545515 0.000000
vt  0.545100 0.525215 0.000000
vt  0.545100 0.525215 0.000000
vt  0.525584 0.512345 0.000000
vt  0.519598 0.522821 0.000000
vt  0.510616 0.529831 0.000000
vt  0.500000 0.532295 0.000000
vt  0.489384 0.529831 0.000000
vt  0.480402 0.522821 0.000000
vt  0.474416 0.512345 0.000000
vt  0.559277 0.500000 0.000000
vt  0.559277 0.500000 0.000000
vt  0.559277 0.500000 0.000000
vt  0.559277 0.500000 0.000000
vt  0.554858 0.526335 0.000000
vt  0.542159 0.548759 0.000000
vt  0.522911 0.563838 0.000000
vt  0.500000 0.569157 0.000000
vt  0.477089 0.563838 0.000000
vt  0.457841 0.548759 0.000000
vt  0.445142 0.526335 0.000000
vt  0.440723 0.500000 0.000000
vt  0.440723 0.500000 0.000000
vt  0.440723 0.500000 0.000000
vt  0.440723 0.500000 0.000000
vt  0.554471 0.500000 0.000000
vt  0.554471 0.500000 0.000000
vt  0.554471 0.500000 0.000000
vt  0.554471 0.500000 0.000000
vt  0.550396 0.524218 0.000000
vt  0.538705 0.544826 0.000000
vt  0.521020 0.558670 0.000000
vt  0.500000 0.563549 0.000000
vt  0.478980 0.558670 0.000000
vt  0.461295 0.544826 0.000000
vt  0.449604 0.524218 0.000000
vt  0.445529 0.500000 0.000000
vt  0.445529 0.500000 0.000000
vt  0.445529 0.500000 0.000000
vt  0.445529 0.500000 0.000000
vt  0.445142 0.473665 0.000000
vt  0.457841 0.451241 0.000000
vt  0.477089 0.436162 0.000000
vt  0.500000 0.430843 0.000000
vt  0.522911 0.436162 0.000000
vt  0.542159 0.451241 0.000000
vt  0.554858 0.473665 0.000000
vt  0.449604 0.475782 0.000000
vt  0.461295 0.455174 0.000000
vt  0.478980 0.441330 0.000000
vt  0.500000 0.436451 0.000000
vt  0.521020 0.441330 0.000000
vt  0.538705 0.455174 0.000000
vt  0.550396 0.475782 0.000000

vn  0.000000 -1.000000 0.000000
vn  1.000000 0.000000 0.000000
vn  1.000000 0.000000 0.000000
vn  0.000000 -1.000000 0.000000
vn  0.900969 0.000000 -0.433884
vn  0.000000 -1.000000 0.000000
vn  0.623490 0.000000 -0.781831
vn  0.000000 -1.000000 0.000000
vn  0.222521 0.000000 -0.974928
vn  0.000000 -1.000000 0.000000
vn  -0.222521 0.000000 -0.974928
vn  0.000000 -1.000000 0.000000
vn  -0.623490 0.000000 -0.781831
vn  0.000000 -1.000000 0.000000
vn  -0.900969 0.000000 -0.433884
vn  0.000000 -1.000000 0.000000
vn  -1.000000 0.000000 -0.000000
vn  -1.000000 0.000000 -0.000000
vn  0.000000 -1.000000 0.000000
vn  -0.900969 0.000000 0.433884
vn  0.000000 -1.000000 0.000000
vn  -0.623490 0.000000 0.781831
vn  0.000000 -1.000000 0.000000
vn  -0.222521 0.000000 0.974928
vn  0.000000 -1.000000 0.000000
vn  0.222521 0.000000 0.974928
vn  0.000000 -1.000000 0.000000
vn  0.623490 0.000000 0.781831
vn  0.000000 -1.000000 0.000000
vn  0.900969 0.000000 0.433884
vn  -1.000000 0.000000 -0.000000
vn  -1.000000 0.000000 -0.000000
vn  -1.000000 0.000000 -0.000000
vn  -1.000000 -0.000000 0.000000
vn  1.000000 0.000000 0.000000
vn  1.000000 0.000000 0.000000
vn  1.000000 -0.000000 -0.000000
vn  1.000000 0.000000 0.000000
vn  0.900969 0.000000 -0.433883
vn  0.900969 -0.000000 -0.433883
vn  0.623491 0.000000 -0.781830
vn  0.623491 0.000000 -0.781830
vn  0.222520 0.000000 -0.974928
vn  0.222520 0.000000 -0.974928
vn  -0.222522 0.000000 -0.974928
vn  -0.222522 -0.000000 -0.974928
vn  -0.623491 0.000000 -0.781831
vn  -0.623491 0.000000 -0.781831
vn  -0.900969 0.000000 -0.433883
vn  -0.900969 0.000000 -0.433883
vn  -0.900969 0.000000 0.433883
vn  -0.900969 -0.000000 0.433883
vn  -0.623491 0.000000 0.781830
vn  -0.623491 -0.000000 0.781830
vn  -0.222520 0.000000 0.974928
vn  -0.222520 -0.000000 0.974928
vn  0.222522 0.000000 0.974928
vn  0.222522 0.000000 0.974928
vn  0.623491 0.000000 0.781831
vn  0.623491 -0.000000 0.781831
vn  0.900969 0.000000 0.433883
vn  0.900969 0.000000 0.433883
vn  0.612903 0.790158 0.000000
vn  0.612903 0.790158 0.000000
vn  0.612903 0.790158 0.000000
vn  0.612903 0.790158 -0.000000
vn  0.552208 0.790158 0.265926
vn  0.552208 0.790158 0.265926
vn  0.382141 0.790158 0.479185
vn  0.382141 0.790158 0.479185
vn  0.136386 0.790158 0.597536
vn  0.136386 0.790158 0.597536
vn  -0.136381 0.790158 0.597537
vn  -0.136381 0.790158 0.597537
vn  -0.382140 0.790158 0.479187
vn  -0.382140 0.790158 0.479187
vn  -0.552207 0.790158 0.265929
vn  -0.552207 0.790158 0.265929
vn  -0.612903 0.790158 0.000000
vn  -0.612903 0.790158 -0.000000
vn  -0.612903 0.790158 0.000000
vn  -0.612903 0.790158 -0.000000
vn  -0.323915 0.946086 0.000000
vn  -0.323915 0.946086 0.000000
vn  -0.323915 0.946086 0.000000
vn  -0.323915 0.946086 0.000000
vn  -0.299259 0.946086 0.123957
vn  -0.229043 0.946086 0.229043
vn  -0.123957 0.946086 0.299259
vn  0.000000 0.946086 0.323915
vn  0.123957 0.946086 0.299259
vn  0.229043 0.946086 0.229043
vn  0.299259 0.946086 0.123957
vn  0.323915 0.946086 0.000000
vn  0.323915 0.946086 0.000000
vn  0.323915 0.946086 0.000000
vn  0.323915 0.946086 0.000000
vn  0.000000 1.000000 0.000000
vn  0.000000 1.000000 0.000000
vn  0.000000 1.000000 0.000000
vn  0.000000 1.000000 0.000000
vn  -0.552208 0.790158 -0.265926
vn  -0.552208 0.790158 -0.265926
vn  -0.382141 0.790158 -0.479185
vn  -0.382141 0.790158 -0.479185
vn  -0.136386 0.790158 -0.597536
vn  -0.136386 0.790158 -0.597536
vn  0.136381 0.790158 -0.597537
vn  0.136381 0.790158 -0.597537
vn  0.382140 0.790158 -0.479187
vn  0.382140 0.790158 -0.479187
vn  0.552207 0.790158 -0.265929
vn  0.552207 0.790158 -0.265929
vn  0.299259 0.946086 -0.123957
vn  0.229043 0.946086 -0.229043
vn  0.123957 0.946086 -0.299259
vn  0.000000 0.946086 -0.323915
vn  -0.123957 0.946086 -0.299259
vn  -0.229043 0.946086 -0.229043
vn  -0.299259 0.946086 -0.123957
vn  -0.736098 0.676875 -0.000000
vn  -0.736098 0.676875 -0.000000
vn  -0.736098 0.676875 0.000000
vn  -0.736098 0.676875 0.000000
vn  -0.680066 0.676875 0.281693
vn  -0.520500 0.676875 0.520500
vn  -0.281693 0.676875 0.680066
vn  0.000000 0.676875 0.736098
vn  0.281693 0.676875 0.680066
vn  0.520500 0.676875 0.520500
vn  0.680066 0.676875 0.281693
vn  0.736098 0.676875 -0.000000
vn  0.736098 0.676875 -0.000000
vn  0.736098 0.676875 0.000000
vn  0.736098 0.676875 0.000000
vn  -0.082940 0.996555 -0.000000
vn  -0.082940 0.996555 -0.000000
vn  -0.082940 0.996555 0.000000
vn  -0.082940 0.996555 0.000000
vn  -0.076627 0.996555 0.031740
vn  -0.058648 0.996555 0.058648
vn  -0.031740 0.996555 0.076627
vn  0.000000 0.996555 0.082940
vn  0.031740 0.996555 0.076627
vn  0.058648 0.996555 0.058648
vn  0.076627 0.996555 0.031740
vn  0.082940 0.996555 -0.000000
vn  0.082940 0.996555 -0.000000
vn  0.082940 0.996555 0.000000
vn  0.082940 0.996555 0.000000
vn  0.680066 0.676875 -0.281693
vn  0.520500 0.676875 -0.520500
vn  0.281693 0.676875 -0.680066
vn  -0.000000 0.676875 -0.736098
vn  -0.281693 0.676875 -0.680066
vn  -0.520500 0.676875 -0.520500
vn  -0.680066 0.676875 -0.281693
vn  0.076627 0.996555 -0.031740
vn  0.058648 0.996555 -0.058648
vn  0.031740 0.996555 -0.076627
vn  -0.000000 0.996555 -0.082940
vn  -0.031740 0.996555 -0.076627
vn  -0.058648 0.996555 -0.058648
vn  -0.076627 0.996555 -0.031740


g 0
g 1
usemtl DEFAULT_MTL
f 14/14/14  4/4/4  1/1/1
f 35/35/35  2/2/2  5/5/5
f 16/16/16  14/14/14  1/1/1
f 29/29/29  16/16/16  1/1/1
f 61/61/61  30/30/30  3/3/3
f 61/61/61  3/3/3  36/36/36
f 12/12/12  6/6/6  4/4/4
f 39/39/39  5/5/5  7/7/7
f 14/14/14  12/12/12  4/4/4
f 39/39/39  35/35/35  5/5/5
f 10/10/10  8/8/8  6/6/6
f 41/41/41  7/7/7  9/9/9
f 12/12/12  10/10/10  6/6/6
f 41/41/41  39/39/39  7/7/7
f 43/43/43  9/9/9  11/11/11
f 43/43/43  41/41/41  9/9/9
f 45/45/45  11/11/11  13/13/13
f 45/45/45  43/43/43  11/11/11
f 47/47/47  13/13/13  15/15/15
f 47/47/47  45/45/45  13/13/13
f 49/49/49  15/15/15  17/17/17
f 49/49/49  47/47/47  15/15/15
f 29/29/29  19/19/19  16/16/16
f 32/32/32  18/18/18  20/20/20
f 49/49/49  17/17/17  31/31/31
f 27/27/27  21/21/21  19/19/19
f 51/51/51  20/20/20  22/22/22
f 29/29/29  27/27/27  19/19/19
f 51/51/51  32/32/32  20/20/20
f 25/25/25  23/23/23  21/21/21
f 53/53/53  22/22/22  24/24/24
f 27/27/27  25/25/25  21/21/21
f 53/53/53  51/51/51  22/22/22
f 55/55/55  24/24/24  26/26/26
f 55/55/55  53/53/53  24/24/24
f 57/57/57  26/26/26  28/28/28
f 57/57/57  55/55/55  26/26/26
f 59/59/59  28/28/28  30/30/30
f 59/59/59  57/57/57  28/28/28
f 61/61/61  59/59/59  30/30/30
f 157/157/157  50/50/50  34/34/34
f 121/121/121  33/33/33  52/52/52
f 157/157/157  34/34/34  123/123/123
f 134/134/134  38/38/38  40/40/40
f 131/131/131  62/62/62  37/37/37
f 132/132/132  131/131/131  37/37/37
f 152/152/152  40/40/40  42/42/42
f 151/151/151  134/134/134  40/40/40
f 152/152/152  151/151/151  40/40/40
f 153/153/153  42/42/42  44/44/44
f 153/153/153  152/152/152  42/42/42
f 154/154/154  44/44/44  46/46/46
f 154/154/154  153/153/153  44/44/44
f 155/155/155  46/46/46  48/48/48
f 155/155/155  154/154/154  46/46/46
f 156/156/156  48/48/48  50/50/50
f 156/156/156  155/155/155  48/48/48
f 157/157/157  156/156/156  50/50/50
f 126/126/126  52/52/52  54/54/54
f 125/125/125  121/121/121  52/52/52
f 126/126/126  125/125/125  52/52/52
f 127/127/127  54/54/54  56/56/56
f 127/127/127  126/126/126  54/54/54
f 128/128/128  56/56/56  58/58/58
f 128/128/128  127/127/127  56/56/56
f 129/129/129  58/58/58  60/60/60
f 129/129/129  128/128/128  58/58/58
f 130/130/130  60/60/60  62/62/62
f 130/130/130  129/129/129  60/60/60
f 131/131/131  130/130/130  62/62/62
f 93/93/93  67/67/67  63/63/63
f 138/138/138  66/66/66  68/68/68
f 94/94/94  93/93/93  63/63/63
f 112/112/112  96/96/96  64/64/64
f 140/140/140  113/113/113  65/65/65
f 140/140/140  65/65/65  136/136/136
f 92/92/92  69/69/69  67/67/67
f 163/163/163  68/68/68  70/70/70
f 93/93/93  92/92/92  67/67/67
f 164/164/164  138/138/138  68/68/68
f 164/164/164  68/68/68  163/163/163
f 91/91/91  71/71/71  69/69/69
f 162/162/162  70/70/70  72/72/72
f 92/92/92  91/91/91  69/69/69
f 163/163/163  70/70/70  162/162/162
f 90/90/90  73/73/73  71/71/71
f 161/161/161  72/72/72  74/74/74
f 91/91/91  90/90/90  71/71/71
f 162/162/162  72/72/72  161/161/161
f 89/89/89  75/75/75  73/73/73
f 160/160/160  74/74/74  76/76/76
f 90/90/90  89/89/89  73/73/73
f 161/161/161  74/74/74  160/160/160
f 88/88/88  77/77/77  75/75/75
f 159/159/159  76/76/76  78/78/78
f 89/89/89  88/88/88  75/75/75
f 160/160/160  76/76/76  159/159/159
f 83/83/83  79/79/79  77/77/77
f 158/158/158  78/78/78  82/82/82
f 87/87/87  83/83/83  77/77/77
f 88/88/88  87/87/87  77/77/77
f 159/159/159  78/78/78  158/158/158
f 120/120/120  80/80/80  85/85/85
f 120/120/120  102/102/102  80/80/80
f 147/147/147  81/81/81  103/103/103
f 158/158/158  82/82/82  149/149/149
f 98/98/98  83/83/83  87/87/87
f 120/120/120  85/85/85  100/100/100
f 98/98/98  87/87/87  88/88/88
f 98/98/98  88/88/88  89/89/89
f 98/98/98  89/89/89  90/90/90
f 98/98/98  90/90/90  91/91/91
f 98/98/98  91/91/91  92/92/92
f 98/98/98  92/92/92  93/93/93
f 98/98/98  93/93/93  94/94/94
f 114/114/114  100/100/100  96/96/96
f 114/114/114  96/96/96  112/112/112
f 115/115/115  100/100/100  114/114/114
f 116/116/116  100/100/100  115/115/115
f 117/117/117  100/100/100  116/116/116
f 118/118/118  100/100/100  117/117/117
f 119/119/119  100/100/100  118/118/118
f 120/120/120  100/100/100  119/119/119
f 119/119/119  104/104/104  102/102/102
f 145/145/145  103/103/103  105/105/105
f 120/120/120  119/119/119  102/102/102
f 146/146/146  103/103/103  145/145/145
f 147/147/147  103/103/103  146/146/146
f 118/118/118  106/106/106  104/104/104
f 144/144/144  105/105/105  107/107/107
f 119/119/119  118/118/118  104/104/104
f 145/145/145  105/105/105  144/144/144
f 117/117/117  108/108/108  106/106/106
f 143/143/143  107/107/107  109/109/109
f 118/118/118  117/117/117  106/106/106
f 144/144/144  107/107/107  143/143/143
f 116/116/116  110/110/110  108/108/108
f 142/142/142  109/109/109  111/111/111
f 117/117/117  116/116/116  108/108/108
f 143/143/143  109/109/109  142/142/142
f 115/115/115  112/112/112  110/110/110
f 141/141/141  111/111/111  113/113/113
f 116/116/116  115/115/115  110/110/110
f 142/142/142  111/111/111  141/141/141
f 115/115/115  114/114/114  112/112/112
f 141/141/141  113/113/113  140/140/140
f 136/136/136  121/121/121  125/125/125
f 164/164/164  123/123/123  138/138/138
f 164/164/164  157/157/157  123/123/123
f 140/140/140  125/125/125  126/126/126
f 140/140/140  136/136/136  125/125/125
f 141/141/141  126/126/126  127/127/127
f 141/141/141  140/140/140  126/126/126
f 142/142/142  127/127/127  128/128/128
f 142/142/142  141/141/141  127/127/127
f 143/143/143  128/128/128  129/129/129
f 143/143/143  142/142/142  128/128/128
f 144/144/144  129/129/129  130/130/130
f 144/144/144  143/143/143  129/129/129
f 145/145/145  130/130/130  131/131/131
f 145/145/145  144/144/144  130/130/130
f 146/146/146  131/131/131  132/132/132
f 146/146/146  145/145/145  131/131/131
f 147/147/147  146/146/146  132/132/132
f 151/151/151  149/149/149  134/134/134
f 158/158/158  149/149/149  151/151/151
f 158/158/158  151/151/151  152/152/152
f 159/159/159  152/152/152  153/153/153
f 159/159/159  158/158/158  152/152/152
f 160/160/160  153/153/153  154/154/154
f 160/160/160  159/159/159  153/153/153
f 161/161/161  154/154/154  155/155/155
f 161/161/161  160/160/160  154/154/154
f 162/162/162  155/155/155  156/156/156
f 162/162/162  161/161/161  155/155/155
f 163/163/163  156/156/156  157/157/157
f 163/163/163  162/162/162  156/156/156
f 164/164/164  163/163/163  157/157/157
